<svg id="svg" version="1.1" width="400" height="400" xmlns="http://www.w3.org/2000/svg" xmlns:xlink="http://www.w3.org/1999/xlink" style="display: block;"><g id="svgg"><path id="path0" d="" stroke="none" fill="#ffffff" fill-rule="evenodd"></path><path id="path1" d="M185.200 37.219 C 107.444 44.528,47.420 103.377,37.528 182.000 C 36.809 187.720,36.809 212.280,37.528 218.000 C 47.294 295.615,104.385 352.706,182.000 362.472 C 187.720 363.191,212.280 363.191,218.000 362.472 C 315.828 350.163,380.284 260.088,359.547 164.664 C 344.899 97.261,290.272 47.589,220.000 37.774 C 214.597 37.019,191.280 36.647,185.200 37.219 M206.800 78.419 C 308.201 84.807,358.027 203.214,291.661 280.087 C 238.555 341.599,139.559 333.601,96.567 264.324 C 48.108 186.237,100.699 84.225,192.400 78.433 C 199.751 77.969,199.647 77.969,206.800 78.419 M245.471 148.457 C 245.154 149.196,237.835 165.550,229.207 184.800 C 220.578 204.050,213.426 220.029,213.313 220.308 C 213.150 220.712,214.789 220.794,221.246 220.708 L 229.384 220.600 231.763 215.300 L 234.143 210.000 246.195 210.000 L 258.248 210.000 260.624 215.391 L 263.000 220.782 271.100 220.791 C 275.555 220.796,279.200 220.738,279.200 220.662 C 279.200 220.385,246.504 147.571,246.279 147.346 C 246.151 147.218,245.788 147.718,245.471 148.457 M197.800 150.771 C 193.400 152.043,188.765 153.386,187.500 153.753 L 185.200 154.422 185.200 162.211 C 185.200 166.495,185.245 170.000,185.300 170.000 C 185.355 170.000,186.840 169.553,188.600 169.006 C 190.360 168.459,191.935 168.009,192.100 168.006 C 192.265 168.003,192.400 179.880,192.400 194.400 L 192.400 220.800 199.800 220.800 L 207.200 220.800 207.200 184.600 C 207.200 150.380,207.162 148.402,206.500 148.428 C 206.115 148.444,202.200 149.498,197.800 150.771 M126.400 184.796 L 126.400 220.857 139.900 220.708 C 158.778 220.501,165.042 218.348,173.259 209.244 C 182.282 199.247,184.461 180.827,178.170 167.718 C 171.695 154.224,161.326 149.150,139.700 148.893 L 126.400 148.735 126.400 184.796 M151.928 164.250 C 161.151 166.652,166.800 174.459,166.800 184.800 C 166.800 197.989,158.606 206.000,145.116 206.000 L 140.800 206.000 140.800 184.549 L 140.800 163.097 145.260 163.386 C 147.714 163.545,150.714 163.934,151.928 164.250 M249.406 190.014 C 251.053 193.828,252.400 197.006,252.400 197.075 C 252.400 197.144,249.591 197.200,246.157 197.200 C 241.322 197.200,239.960 197.087,240.116 196.700 C 241.421 193.454,246.174 182.841,246.277 182.943 C 246.351 183.018,247.759 186.200,249.406 190.014 " stroke="none" fill="#33207e" fill-rule="evenodd"></path><path id="path2" d="M126.800 230.400 L 126.800 232.400 128.800 232.400 L 130.800 232.400 130.800 248.022 L 130.800 263.645 132.700 264.522 C 135.620 265.871,144.861 265.824,147.912 264.446 C 153.865 261.755,156.637 253.219,154.141 245.263 C 152.029 238.531,142.534 235.920,136.700 240.468 L 135.200 241.638 135.200 235.019 L 135.200 228.400 131.000 228.400 L 126.800 228.400 126.800 230.400 M197.700 232.899 C 196.400 233.316,196.400 233.316,196.400 236.058 L 196.400 238.800 193.178 238.800 L 189.956 238.800 190.078 240.700 L 190.200 242.600 193.271 242.716 L 196.342 242.833 196.471 251.116 C 196.616 260.399,196.866 261.370,199.770 263.920 C 202.774 266.557,208.979 266.804,213.709 264.475 C 216.684 263.010,216.681 263.016,215.726 261.014 C 214.913 259.308,215.042 259.317,212.364 260.793 C 209.617 262.307,205.795 262.482,203.677 261.190 C 201.259 259.716,200.819 257.983,200.809 249.900 L 200.800 242.800 207.600 242.800 L 214.400 242.800 214.400 240.800 L 214.400 238.800 207.600 238.800 L 200.800 238.800 200.800 235.600 C 200.800 232.036,200.690 231.940,197.700 232.899 M230.374 239.152 C 220.748 242.919,219.833 259.976,229.000 264.757 C 233.146 266.919,242.511 266.009,246.138 263.090 L 247.276 262.175 246.399 260.687 C 245.916 259.869,245.469 259.200,245.405 259.200 C 245.342 259.200,244.055 259.785,242.545 260.500 C 235.221 263.969,228.580 261.422,227.422 254.700 L 227.164 253.200 237.182 253.200 L 247.200 253.200 247.200 250.273 C 247.200 240.771,239.404 235.618,230.374 239.152 M261.012 239.017 C 257.585 240.316,255.829 242.966,256.082 246.459 C 256.358 250.276,258.179 251.636,265.641 253.593 C 270.725 254.927,272.442 255.805,272.985 257.348 C 274.671 262.143,263.999 263.775,258.621 259.545 C 257.303 258.508,256.823 258.702,255.687 260.727 L 254.775 262.354 256.287 263.388 C 263.449 268.281,275.127 266.482,277.212 260.164 C 278.958 254.875,276.138 251.761,267.823 249.796 C 261.173 248.225,259.597 247.081,260.712 244.634 C 261.865 242.102,268.523 241.600,272.687 243.732 C 275.279 245.059,275.032 245.097,275.992 243.216 C 277.105 241.035,277.109 241.043,274.300 239.782 C 271.197 238.388,263.795 237.962,261.012 239.017 M165.149 252.083 L 170.611 265.400 172.272 265.521 C 173.877 265.639,173.921 265.679,173.616 266.745 C 172.363 271.113,169.842 272.548,166.138 271.000 C 165.349 270.670,164.654 270.400,164.595 270.400 C 164.378 270.400,163.200 273.634,163.200 274.229 C 163.200 275.150,165.676 276.000,168.361 276.000 C 173.902 276.000,175.966 273.765,178.559 264.956 C 179.821 260.668,185.615 241.443,186.211 239.564 C 186.431 238.871,186.235 238.800,184.103 238.800 L 181.753 238.800 178.576 250.012 C 174.516 264.345,175.216 264.346,169.399 250.000 L 164.940 239.000 162.313 238.883 L 159.686 238.765 165.149 252.083 M146.841 243.301 C 151.556 246.425,151.367 257.142,146.540 260.400 C 144.855 261.537,138.465 261.851,136.300 260.902 L 135.200 260.420 135.204 254.710 C 135.209 247.485,136.236 244.838,139.800 242.867 C 141.279 242.049,145.328 242.298,146.841 243.301 M239.582 243.238 C 241.213 244.155,242.341 245.767,242.812 247.853 L 243.116 249.200 235.308 249.200 L 227.500 249.200 227.751 247.946 C 228.689 243.254,235.083 240.710,239.582 243.238 " stroke="none" fill="#8382a9" fill-rule="evenodd"></path></g></svg>